<mxfile host="app.diagrams.net" modified="2024-06-17T05:02:00.040Z" agent="Mozilla/5.0 (Windows NT 10.0; Win64; x64) AppleWebKit/537.36 (KHTML, like Gecko) Chrome/123.0.0.0 Safari/537.36 OPR/109.0.0.0 (Edition std-1)" version="24.5.4" etag="_H1neF2yPvUd2mymk7kg" type="github">
  <diagram name="PÃ¡gina-1" id="AsHZpO0A9ttxBowDORyo">
    <mxGraphModel>
      <root>
        <mxCell id="0" />
        <mxCell id="1" parent="0" />
      </root>
    </mxGraphModel>
  </diagram>
</mxfile>
